<?xml version="1.0" encoding="UTF-8"?>
<svg xmlns="http://www.w3.org/2000/svg" version="1.1" viewBox="0 0 32 32">
  <defs>
    <style>
      .cls-1 {
        fill: none;
      }

      .cls-2 {
        fill: #d6d6d6;
      }

      .cls-3 {
        fill: #3b5daa;
      }

      .cls-4 {
        fill: #fff;
      }
    </style>
  </defs>
  <!-- Generator: Adobe Illustrator 28.7.1, SVG Export Plug-In . SVG Version: 1.2.0 Build 142)  -->
  <g>
    <g id="Layer_1">
      <g>
        <rect class="cls-3" y="4.7" width="32" height="22.6" rx="2.7" ry="2.7"/>
        <g>
          <path class="cls-4" d="M22.2,12v1.3h-8.4l1.6-1.6c.4-.4,1-.7,1.6-.7h1.4v-1.5c0-.1,0-.2.2-.2s.1,0,.1,0c0,0,0,0,0,.1v1.5h.9v-2.2c0-.1,0-.2.2-.2s.1,0,.1,0c0,0,0,0,0,.1v2.2h1.1c.5,0,.9.4.9.9Z"/>
          <g>
            <path class="cls-4" d="M4.8,16c-.2,0-.4.2-.5.4v-2.4l1.9.7v.9l-1.3.5Z"/>
            <path class="cls-4" d="M4.8,18.7l1.3.5v.7l-1.9.9v-2.4c.2.2.3.3.5.4Z"/>
            <path class="cls-1" d="M4.2,13.9h0"/>
          </g>
          <path class="cls-4" d="M27.4,16.2h-10.1c-.1,0-.2,0-.2-.2s0-.2.2-.2h10c-.2-.4-.4-.7-.7-1-.7-.7-1.6-1.1-2.6-1.1h-11.6c-.3,0-.5,0-.8.1l-5,1.9-.4.2-1.2.4h0s0,0,0,0c-.4.2-.7.5-.7,1s.3.8.7,1h0s0,0,0,0l1.2.4.4.2,5,1.9c.3,0,.5.1.8.1h11.5c1,0,1.9-.4,2.6-1,.7-.7,1.1-1.6,1.1-2.5,0-.4,0-.8-.2-1.2ZM14.5,16.2h-2.7c-.1,0-.2,0-.2-.2s0-.2.2-.2h2.7c.1,0,.2,0,.2.2s0,.2-.2.2ZM15.9,18c-.1,0-.2,0-.2-.2s0-.2.2-.2.2,0,.2.2,0,.2-.2.2ZM18.6,18c-.1,0-.2,0-.2-.2s0-.2.2-.2.2,0,.2.2,0,.2-.2.2ZM21.2,18c-.1,0-.2,0-.2-.2s0-.2.2-.2.2,0,.2.2,0,.2-.2.2ZM23.9,18c-.1,0-.2,0-.2-.2s0-.2.2-.2.2,0,.2.2,0,.2-.2.2Z"/>
        </g>
        <path class="cls-2" d="M27.4,16.2h-10.1c-.1,0-.2,0-.2-.2h-2.3c0,.1,0,.2-.2.2h-2.7c-.1,0-.2,0-.2-.2h-5.8l-1,.4h0s0,0,0,0c-.4.2-.7.5-.7,1s.3.8.7,1h0s0,0,0,0l1.2.4.4.2,5,1.9c.3,0,.5.1.8.1h11.5c1,0,1.9-.4,2.6-1,.7-.7,1.1-1.6,1.1-2.5,0-.4,0-.8-.2-1.2ZM15.9,18c-.1,0-.2,0-.2-.2s0-.2.2-.2.2,0,.2.2,0,.2-.2.2ZM18.6,18c-.1,0-.2,0-.2-.2s0-.2.2-.2.2,0,.2.2,0,.2-.2.2ZM21.2,18c-.1,0-.2,0-.2-.2s0-.2.2-.2.2,0,.2.2,0,.2-.2.2ZM23.9,18c-.1,0-.2,0-.2-.2s0-.2.2-.2.2,0,.2.2,0,.2-.2.2Z"/>
        <path class="cls-2" d="M4.8,18.7c-.2,0-.4-.2-.5-.4v2.4l1.9-.9v-.7l-1.3-.5Z"/>
        <path class="cls-2" d="M4.2,13.9v2.4c.2-.2.3-.3.5-.4l1.3-.5v-.9l-1.9-.7Z"/>
        <path class="cls-2" d="M21.2,11h-4.3c-.6,0-1.2.2-1.6.7l-1.6,1.6h8.4v-1.3c0-.5-.4-.9-.9-.9Z"/>
      </g>
    </g>
  </g>
</svg>